<svg id="Decorative_icon" data-name="Decorative icon" xmlns="http://www.w3.org/2000/svg" width="18" height="18" viewBox="0 0 18 18">
  <rect id="Placement_Area" data-name="Placement Area" width="18" height="18" fill="red" opacity="0"/>
  <g id="Icon">
    <rect id="Canvas" width="18" height="18" fill="#d1d1d1" opacity="0"/>
    <path id="Path_46" data-name="Path 46" d="M13.243,3.343,9,7.586,4.758,3.343a.5.5,0,0,0-.707,0l-.707.707a.5.5,0,0,0,0,.707L7.586,9,3.343,13.243a.5.5,0,0,0,0,.707l.707.707a.5.5,0,0,0,.707,0L9,10.414l4.243,4.243a.5.5,0,0,0,.707,0l.707-.707a.5.5,0,0,0,0-.707L10.414,9l4.243-4.242a.5.5,0,0,0,0-.707l-.707-.707a.5.5,0,0,0-.707,0Z" fill="#d1d1d1"/>
  </g>
</svg>
