<svg width="262" height="240" viewBox="0 0 262 240" fill="none" xmlns="http://www.w3.org/2000/svg">
<g style="mix-blend-mode:luminosity">
<path d="M101.6 172H138.4C147.361 172 151.841 172 155.264 170.256C158.274 168.722 160.722 166.274 162.256 163.264C164 159.841 164 155.361 164 146.4V106.421C164 101.862 164 99.582 163.416 97.479C162.898 95.617 162.048 93.864 160.905 92.305C159.616 90.546 157.825 89.135 154.243 86.313L137.97 73.491C135.386 71.456 134.094 70.438 132.659 69.714C131.386 69.072 130.033 68.603 128.636 68.32C127.061 68 125.416 68 122.127 68H101.6C92.639 68 88.159 68 84.736 69.744C81.726 71.278 79.278 73.726 77.744 76.736C76 80.159 76 84.639 76 93.6V146.4C76 155.361 76 159.841 77.744 163.264C79.278 166.274 81.726 168.722 84.736 170.256C88.159 172 92.639 172 101.6 172Z" fill="#F8F8F8" fill-opacity="0.05"/>
</g>
<path d="M101.6 172H138.4C147.361 172 151.841 172 155.264 170.256C158.274 168.722 160.722 166.274 162.256 163.264C164 159.841 164 155.361 164 146.4V106.421C164 101.862 164 99.582 163.416 97.479C162.898 95.617 162.048 93.864 160.905 92.305C159.616 90.546 157.825 89.135 154.243 86.313L137.97 73.491C135.386 71.456 134.094 70.438 132.659 69.714C131.386 69.072 130.033 68.603 128.636 68.32C127.061 68 125.416 68 122.127 68H101.6C92.639 68 88.159 68 84.736 69.744C81.726 71.278 79.278 73.726 77.744 76.736C76 80.159 76 84.639 76 93.6V146.4C76 155.361 76 159.841 77.744 163.264C79.278 166.274 81.726 168.722 84.736 170.256C88.159 172 92.639 172 101.6 172Z" stroke="url(#paint0_linear_307_6445)" stroke-opacity="0.25" stroke-width="1.5"/>
<g filter="url(#filter0_d_307_6445)">
<g style="mix-blend-mode:luminosity">
<path d="M99.2 168H140.8C147.521 168 150.881 168 153.448 166.692C155.706 165.542 157.542 163.706 158.692 161.448C160 158.881 160 155.521 160 148.8V105.228C160 101.839 160 100.145 159.569 98.58C159.187 97.194 158.56 95.888 157.716 94.725C156.763 93.411 155.44 92.352 152.794 90.235L135.259 76.207C133.31 74.648 132.335 73.868 131.25 73.314C130.287 72.822 129.262 72.462 128.203 72.245C127.009 72 125.761 72 123.265 72H99.2C92.479 72 89.119 72 86.552 73.308C84.294 74.458 82.458 76.294 81.308 78.552C80 81.119 80 84.479 80 91.2V148.8C80 155.521 80 158.881 81.308 161.448C82.458 163.706 84.294 165.542 86.552 166.692C89.119 168 92.479 168 99.2 168Z" fill="#F8F8F8" fill-opacity="0.05"/>
</g>
<path d="M99.2 168H140.8C147.521 168 150.881 168 153.448 166.692C155.706 165.542 157.542 163.706 158.692 161.448C160 158.881 160 155.521 160 148.8V105.228C160 101.839 160 100.145 159.569 98.58C159.187 97.194 158.56 95.888 157.716 94.725C156.763 93.411 155.44 92.352 152.794 90.235L135.259 76.207C133.31 74.648 132.335 73.868 131.25 73.314C130.287 72.822 129.262 72.462 128.203 72.245C127.009 72 125.761 72 123.265 72H99.2C92.479 72 89.119 72 86.552 73.308C84.294 74.458 82.458 76.294 81.308 78.552C80 81.119 80 84.479 80 91.2V148.8C80 155.521 80 158.881 81.308 161.448C82.458 163.706 84.294 165.542 86.552 166.692C89.119 168 92.479 168 99.2 168Z" stroke="url(#paint1_linear_307_6445)" stroke-opacity="0.25" stroke-width="1.5"/>
</g>
<path d="M121 115.5C121 117.433 122.567 119 124.5 119H127C127.552 119 128 119.448 128 120C128 120.552 127.552 121 127 121H124.5C122.567 121 121 122.567 121 124.5V127C121 127.552 120.552 128 120 128C119.448 128 119 127.552 119 127V124.5C119 122.567 117.433 121 115.5 121H113C112.448 121 112 120.552 112 120C112 119.448 112.448 119 113 119H115.5C117.433 119 119 117.433 119 115.5V113C119 112.448 119.448 112 120 112C120.552 112 121 112.448 121 113V115.5Z" fill="#F8F8F8"/>
<path d="M144.084 119.183C143.896 119.116 143.705 119.047 143.545 119.006C143.392 118.966 143.097 118.9 142.781 119.01C142.419 119.135 142.135 119.42 142.009 119.782C141.9 120.098 141.966 120.392 142.005 120.545C142.047 120.706 142.116 120.896 142.183 121.084L146.957 134.383C147.041 134.617 147.121 134.841 147.201 135.013C147.268 135.159 147.42 135.478 147.751 135.658C148.114 135.855 148.55 135.861 148.917 135.674C149.253 135.502 149.414 135.187 149.485 135.043C149.569 134.873 149.655 134.651 149.745 134.42L151.894 128.894L157.42 126.745C157.651 126.655 157.873 126.569 158.043 126.485C158.187 126.414 158.502 126.253 158.673 125.918C158.861 125.55 158.855 125.114 158.658 124.752C158.478 124.42 158.159 124.268 158.013 124.201C157.841 124.122 157.617 124.041 157.383 123.957L144.084 119.183Z" fill="#121212" stroke="#F8F8F8" stroke-width="1.5" stroke-linecap="round" stroke-linejoin="round"/>
<g filter="url(#filter1_di_307_6445)">
<g style="mix-blend-mode:luminosity">
<path d="M230 133H164C159.582 133 156 136.582 156 141V147C156 151.418 159.582 155 164 155H230C234.418 155 238 151.418 238 147V141C238 136.582 234.418 133 230 133Z" fill="#F8F8F8" fill-opacity="0.05"/>
</g>
<path d="M230 133.75H164C159.996 133.75 156.75 136.996 156.75 141V147C156.75 151.004 159.996 154.25 164 154.25H230C234.004 154.25 237.25 151.004 237.25 147V141C237.25 136.996 234.004 133.75 230 133.75Z" stroke="url(#paint2_linear_307_6445)" stroke-opacity="0.25" stroke-width="1.5"/>
<path d="M165.843 146.464H167.163C168.555 146.464 169.719 145.6 169.719 143.752C169.719 141.904 168.567 141.028 167.175 141.028H165.843V146.464ZM167.223 148H164.187V139.492H167.235C169.659 139.492 171.435 141.064 171.435 143.752C171.435 146.44 169.647 148 167.223 148ZM176.373 142.072V143.68C176.193 143.644 176.037 143.632 175.893 143.632C175.077 143.632 174.369 144.028 174.369 145.3V148H172.773V142.096H174.321V142.972C174.681 142.192 175.497 142.048 176.001 142.048C176.133 142.048 176.253 142.06 176.373 142.072ZM177.077 146.392C177.077 145.336 177.857 144.748 178.841 144.604L180.293 144.388C180.629 144.34 180.737 144.172 180.737 143.968C180.737 143.548 180.413 143.2 179.741 143.2C179.045 143.2 178.661 143.644 178.613 144.16L177.197 143.86C177.293 142.936 178.145 141.916 179.729 141.916C181.601 141.916 182.297 142.972 182.297 144.16V147.064C182.297 147.376 182.333 147.796 182.369 148H180.905C180.869 147.844 180.845 147.52 180.845 147.292C180.545 147.76 179.981 148.168 179.105 148.168C177.845 148.168 177.077 147.316 177.077 146.392ZM179.441 146.98C180.113 146.98 180.737 146.656 180.737 145.612V145.348L179.405 145.552C178.997 145.612 178.673 145.84 178.673 146.296C178.673 146.644 178.925 146.98 179.441 146.98ZM183.534 148.324L184.974 147.94C185.082 148.588 185.598 149.056 186.354 149.056C187.362 149.056 187.926 148.552 187.926 147.412V146.98C187.686 147.364 187.134 147.736 186.282 147.736C184.71 147.736 183.534 146.524 183.534 144.868C183.534 143.308 184.662 141.988 186.282 141.988C187.218 141.988 187.758 142.396 187.962 142.792V142.096H189.498V147.364C189.498 148.984 188.622 150.46 186.402 150.46C184.782 150.46 183.702 149.452 183.534 148.324ZM186.558 146.368C187.374 146.368 187.95 145.78 187.95 144.868C187.95 143.956 187.326 143.38 186.558 143.38C185.766 143.38 185.142 143.956 185.142 144.868C185.142 145.792 185.73 146.368 186.558 146.368ZM199.396 148L198.52 147.088C197.884 147.736 197.152 148.168 196.24 148.168C194.572 148.168 193.66 147.028 193.66 145.888C193.66 144.832 194.224 144.22 195.112 143.56L195.172 143.524L195.04 143.38C194.632 142.948 194.104 142.3 194.104 141.532C194.104 140.104 195.304 139.312 196.456 139.312C197.812 139.312 198.82 140.188 198.82 141.46C198.82 142.324 198.232 142.948 197.62 143.404L197.296 143.644L198.58 145L200.728 142.756V144.748L199.54 145.996L201.46 148H199.396ZM196.264 146.776C196.78 146.776 197.152 146.5 197.56 146.068L196.108 144.532L195.928 144.664C195.52 144.964 195.244 145.288 195.244 145.792C195.244 146.284 195.64 146.776 196.264 146.776ZM195.616 141.484C195.616 141.844 195.904 142.192 196.12 142.408L196.348 142.66L196.768 142.348C197.164 142.06 197.308 141.76 197.308 141.448C197.308 140.992 196.948 140.632 196.444 140.632C196.048 140.632 195.616 140.908 195.616 141.484ZM210.934 139.312V146.932C210.934 147.328 210.958 147.76 210.982 148H209.458C209.434 147.88 209.398 147.592 209.398 147.316C209.134 147.784 208.534 148.144 207.742 148.144C206.062 148.144 204.862 146.824 204.862 145.036C204.862 143.308 206.026 141.952 207.694 141.952C208.714 141.952 209.194 142.372 209.362 142.684V139.312H210.934ZM206.47 145.036C206.47 146.092 207.094 146.716 207.934 146.716C208.75 146.716 209.386 146.092 209.386 145.024C209.386 143.968 208.75 143.38 207.934 143.38C207.118 143.38 206.47 143.98 206.47 145.036ZM216.17 142.072V143.68C215.99 143.644 215.834 143.632 215.69 143.632C214.874 143.632 214.166 144.028 214.166 145.3V148H212.57V142.096H214.118V142.972C214.478 142.192 215.294 142.048 215.798 142.048C215.93 142.048 216.05 142.06 216.17 142.072ZM219.888 146.728C220.668 146.728 221.388 146.164 221.388 145.048C221.388 143.932 220.668 143.368 219.888 143.368C219.108 143.368 218.388 143.932 218.388 145.048C218.388 146.152 219.108 146.728 219.888 146.728ZM219.888 141.916C221.652 141.916 222.984 143.224 222.984 145.048C222.984 146.86 221.652 148.18 219.888 148.18C218.124 148.18 216.792 146.86 216.792 145.048C216.792 143.224 218.124 141.916 219.888 141.916ZM225.85 150.28H224.254V142.096H225.802V142.816C226.066 142.36 226.726 141.964 227.614 141.964C229.342 141.964 230.338 143.284 230.338 145.036C230.338 146.824 229.222 148.144 227.554 148.144C226.738 148.144 226.138 147.82 225.85 147.424V150.28ZM228.766 145.048C228.766 144.004 228.118 143.392 227.302 143.392C226.486 143.392 225.826 144.004 225.826 145.048C225.826 146.092 226.486 146.716 227.302 146.716C228.118 146.716 228.766 146.104 228.766 145.048Z" fill="#F8F8F8" fill-opacity="0.7"/>
</g>
<defs>
<filter id="filter0_d_307_6445" x="47.25" y="39.25" width="145.5" height="177.5" filterUnits="userSpaceOnUse" color-interpolation-filters="sRGB">
<feFlood flood-opacity="0" result="BackgroundImageFix"/>
<feColorMatrix in="SourceAlpha" type="matrix" values="0 0 0 0 0 0 0 0 0 0 0 0 0 0 0 0 0 0 127 0" result="hardAlpha"/>
<feOffset dy="24"/>
<feGaussianBlur stdDeviation="12"/>
<feComposite in2="hardAlpha" operator="out"/>
<feColorMatrix type="matrix" values="0 0 0 0 0 0 0 0 0 0 0 0 0 0 0 0 0 0 0.5 0"/>
<feBlend mode="normal" in2="BackgroundImageFix" result="effect1_dropShadow_307_6445"/>
<feBlend mode="normal" in="SourceGraphic" in2="effect1_dropShadow_307_6445" result="shape"/>
</filter>
<filter id="filter1_di_307_6445" x="132" y="121" width="130" height="90" filterUnits="userSpaceOnUse" color-interpolation-filters="sRGB">
<feFlood flood-opacity="0" result="BackgroundImageFix"/>
<feColorMatrix in="SourceAlpha" type="matrix" values="0 0 0 0 0 0 0 0 0 0 0 0 0 0 0 0 0 0 127 0" result="hardAlpha"/>
<feOffset dy="32"/>
<feGaussianBlur stdDeviation="12"/>
<feComposite in2="hardAlpha" operator="out"/>
<feColorMatrix type="matrix" values="0 0 0 0 0 0 0 0 0 0 0 0 0 0 0 0 0 0 0.4 0"/>
<feBlend mode="normal" in2="BackgroundImageFix" result="effect1_dropShadow_307_6445"/>
<feBlend mode="normal" in="SourceGraphic" in2="effect1_dropShadow_307_6445" result="shape"/>
<feColorMatrix in="SourceAlpha" type="matrix" values="0 0 0 0 0 0 0 0 0 0 0 0 0 0 0 0 0 0 127 0" result="hardAlpha"/>
<feOffset/>
<feGaussianBlur stdDeviation="4"/>
<feComposite in2="hardAlpha" operator="arithmetic" k2="-1" k3="1"/>
<feColorMatrix type="matrix" values="0 0 0 0 0.972549 0 0 0 0 0.972549 0 0 0 0 0.972549 0 0 0 0.25 0"/>
<feBlend mode="normal" in2="shape" result="effect2_innerShadow_307_6445"/>
</filter>
<linearGradient id="paint0_linear_307_6445" x1="120" y1="68" x2="170.738" y2="176.373" gradientUnits="userSpaceOnUse">
<stop stop-color="white" stop-opacity="0.4"/>
<stop offset="0.4" stop-color="white" stop-opacity="0.01"/>
<stop offset="0.6" stop-color="white" stop-opacity="0.01"/>
<stop offset="1" stop-color="white" stop-opacity="0.1"/>
</linearGradient>
<linearGradient id="paint1_linear_307_6445" x1="120" y1="72" x2="167.292" y2="171.482" gradientUnits="userSpaceOnUse">
<stop stop-color="white" stop-opacity="0.4"/>
<stop offset="0.4" stop-color="white" stop-opacity="0.01"/>
<stop offset="0.6" stop-color="white" stop-opacity="0.01"/>
<stop offset="1" stop-color="white" stop-opacity="0.1"/>
</linearGradient>
<linearGradient id="paint2_linear_307_6445" x1="197" y1="133" x2="199.937" y2="160.638" gradientUnits="userSpaceOnUse">
<stop stop-color="white" stop-opacity="0.4"/>
<stop offset="0.4" stop-color="white" stop-opacity="0.01"/>
<stop offset="0.6" stop-color="white" stop-opacity="0.01"/>
<stop offset="1" stop-color="white" stop-opacity="0.1"/>
</linearGradient>
</defs>
</svg>
