<svg width="10" height="10" viewBox="0 0 10 10" fill="none" xmlns="http://www.w3.org/2000/svg">
<path opacity="0.8" d="M0.49 10C0.415333 10 0.345333 9.972 0.28 9.916C0.224 9.86 0.196 9.79 0.196 9.706C0.196 9.66867 0.205333 9.62667 0.224 9.58L3.598 0.55C3.626 0.456666 3.67733 0.377333 3.752 0.312C3.836 0.237333 3.948 0.199999 4.088 0.199999H5.614C5.754 0.199999 5.86133 0.237333 5.936 0.312C6.01067 0.377333 6.06667 0.456666 6.104 0.55L9.478 9.58C9.48733 9.62667 9.492 9.66867 9.492 9.706C9.492 9.79 9.464 9.86 9.408 9.916C9.352 9.972 9.28667 10 9.212 10H7.994C7.86333 10 7.76533 9.972 7.7 9.916C7.644 9.85067 7.60667 9.79 7.588 9.734L6.93 8.026H2.772L2.114 9.734C2.09533 9.79 2.05333 9.85067 1.988 9.916C1.932 9.972 1.83867 10 1.708 10H0.49ZM3.262 6.416H6.44L4.844 2.09L3.262 6.416Z" fill="#F8F8F8" fill-opacity="0.5"/>
</svg>
