<svg width="9" height="9" viewBox="0 0 9 9" fill="none" xmlns="http://www.w3.org/2000/svg">
<path opacity="0.8" d="M0.396 9C0.324 9 0.264 8.976 0.216 8.928C0.168 8.872 0.144 8.812 0.144 8.748C0.144 8.708 0.148 8.672 0.156 8.64L3.012 0.924C3.036 0.836 3.084 0.76 3.156 0.696C3.228 0.631999 3.328 0.599999 3.456 0.599999H4.992C5.12 0.599999 5.22 0.631999 5.292 0.696C5.364 0.76 5.412 0.836 5.436 0.924L8.292 8.64C8.3 8.672 8.304 8.708 8.304 8.748C8.304 8.812 8.28 8.872 8.232 8.928C8.184 8.976 8.124 9 8.052 9H6.804C6.684 9 6.596 8.972 6.54 8.916C6.484 8.86 6.448 8.808 6.432 8.76L5.916 7.416H2.532L2.016 8.76C2 8.808 1.964 8.86 1.908 8.916C1.852 8.972 1.764 9 1.644 9H0.396ZM2.976 5.868H5.46L4.224 2.412L2.976 5.868Z" fill="#F8F8F8" fill-opacity="0.5"/>
</svg>
