<svg width="25" height="24" viewBox="0 0 25 24" fill="none" xmlns="http://www.w3.org/2000/svg">
<g opacity="0.8">
<g opacity="0.8">
<path d="M12.6667 13C13.219 13 13.6667 12.5523 13.6667 12C13.6667 11.4477 13.219 11 12.6667 11C12.1145 11 11.6667 11.4477 11.6667 12C11.6667 12.5523 12.1145 13 12.6667 13Z" stroke="#F8F8F8"  stroke-width="1.5" stroke-linecap="round" stroke-linejoin="round"/>
<path d="M20.9167 13C21.469 13 21.9167 12.5523 21.9167 12C21.9167 11.4477 21.469 11 20.9167 11C20.3645 11 19.9167 11.4477 19.9167 12C19.9167 12.5523 20.3645 13 20.9167 13Z" stroke="#F8F8F8"  stroke-width="1.5" stroke-linecap="round" stroke-linejoin="round"/>
<path d="M4.41675 13C4.96903 13 5.41675 12.5523 5.41675 12C5.41675 11.4477 4.96903 11 4.41675 11C3.86446 11 3.41675 11.4477 3.41675 12C3.41675 12.5523 3.86446 13 4.41675 13Z" stroke="#F8F8F8"  stroke-width="1.5" stroke-linecap="round" stroke-linejoin="round"/>
</g>
</g>
</svg>
