<svg width="25" height="24" viewBox="0 0 25 24" fill="none" xmlns="http://www.w3.org/2000/svg">
<g opacity="0.8">
<path opacity="0.8" d="M4.7277 14.7723L3.98727 14.6529L4.7277 14.7723ZM20.6059 14.7723L21.3463 14.6529L20.6059 14.7723ZM19.6222 8.67346L18.8817 8.79289L19.6222 8.67346ZM5.71138 8.67346L6.45181 8.79289L5.71138 8.67346ZM2.32835 7.04456C2.21469 7.44288 2.44544 7.85792 2.84375 7.97158C3.24206 8.08525 3.6571 7.8545 3.77077 7.45618L2.32835 7.04456ZM6.29783 3.29186C6.59817 3.00661 6.6104 2.53189 6.32515 2.23155C6.0399 1.93121 5.56518 1.91898 5.26484 2.20423L6.29783 3.29186ZM20.0687 2.20423C19.7684 1.91898 19.2937 1.93121 19.0084 2.23155C18.7232 2.53189 18.7354 3.00661 19.0357 3.29186L20.0687 2.20423ZM21.5628 7.45618C21.6765 7.8545 22.0915 8.08525 22.4898 7.97158C22.8881 7.85792 23.1189 7.44288 23.0052 7.04456L21.5628 7.45618ZM19.6222 8.67346L18.8817 8.79289L19.8654 14.8917L20.6059 14.7723L21.3463 14.6529L20.3626 8.55404L19.6222 8.67346ZM17.6441 18.25V17.5H7.68942V18.25V19H17.6441V18.25ZM4.7277 14.7723L5.46813 14.8917L6.45181 8.79289L5.71138 8.67346L4.97095 8.55404L3.98727 14.6529L4.7277 14.7723ZM7.68942 18.25V17.5C6.30382 17.5 5.2475 16.2597 5.46813 14.8917L4.7277 14.7723L3.98727 14.6529C3.61955 16.9328 5.38009 19 7.68942 19V18.25ZM20.6059 14.7723L19.8654 14.8917C20.0861 16.2597 19.0297 17.5 17.6441 17.5V18.25V19C19.9535 19 21.714 16.9328 21.3463 14.6529L20.6059 14.7723ZM12.6668 2.75002V3.50002C15.7566 3.50002 18.3897 5.74246 18.8817 8.79289L19.6222 8.67346L20.3626 8.55404C19.7534 4.77677 16.4929 2.00002 12.6668 2.00002V2.75002ZM12.6668 2.75002V2.00002C8.8407 2.00002 5.58019 4.77677 4.97095 8.55404L5.71138 8.67346L6.45181 8.79289C6.94382 5.74246 9.57693 3.50002 12.6668 3.50002V2.75002ZM16.6668 18.25L15.966 17.9828C15.3814 19.5162 14.0868 20.5 12.6668 20.5V21.25V22C14.825 22 16.6056 20.5156 17.3676 18.5172L16.6668 18.25ZM12.6668 21.25V20.5C11.2467 20.5 9.95218 19.5162 9.36757 17.9828L8.66678 18.25L7.96598 18.5172C8.72791 20.5156 10.5086 22 12.6668 22V21.25ZM3.04956 7.25037L3.77077 7.45618C4.2301 5.84659 5.11522 4.41506 6.29783 3.29186L5.78134 2.74805L5.26484 2.20423C3.89233 3.5078 2.86298 5.17112 2.32835 7.04456L3.04956 7.25037ZM19.5522 2.74805L19.0357 3.29186C20.2183 4.41506 21.1035 5.84659 21.5628 7.45618L22.284 7.25037L23.0052 7.04456C22.4706 5.17112 21.4412 3.5078 20.0687 2.20423L19.5522 2.74805Z" fill="#F8F8F8" fill-opacity="0.95"/>
</g>
</svg>
