<svg width="20" height="20" viewBox="0 0 20 20" fill="none" xmlns="http://www.w3.org/2000/svg">
<path d="M11.3245 1.66454C10.7912 0.556156 9.20783 0.556156 8.67453 1.66454L6.86368 5.42816C6.83244 5.49308 6.76926 5.5397 6.69416 5.54952L2.52885 6.09405C1.30664 6.25384 0.806898 7.75977 1.71091 8.61085L4.75525 11.4769C4.80877 11.5273 4.83199 11.6 4.81892 11.67L4.05426 15.7654C3.82669 16.9843 5.11807 17.9029 6.1972 17.322L9.8937 15.3323C9.95959 15.2968 10.0395 15.2968 10.1054 15.3323L13.8018 17.322C14.881 17.9029 16.1724 16.9843 15.9448 15.7654L15.1801 11.67C15.1671 11.6 15.1903 11.5273 15.2438 11.4769L18.2881 8.61085C19.1922 7.75977 18.6924 6.25384 17.4702 6.09405L13.3049 5.54952C13.2298 5.5397 13.1666 5.49308 13.1354 5.42816L11.3245 1.66454Z" fill="#FFFA65"/>
</svg>
